<?xml version="1.0" standalone="no"?>
<!DOCTYPE svg PUBLIC "-//W3C//DTD SVG 20010904//EN"
 "http://www.w3.org/TR/2001/REC-SVG-20010904/DTD/svg10.dtd">
<svg version="1.0" xmlns="http://www.w3.org/2000/svg"
 width="700.000000pt" height="700.000000pt" viewBox="0 0 700.000000 700.000000"
 preserveAspectRatio="xMidYMid meet">
<metadata>
Created by potrace 1.11, written by Peter Selinger 2001-2013
</metadata>
<g transform="translate(0.000000,700.000000) scale(0.100000,-0.100000)"
fill="#000000" stroke="none">
<path d="M0 3500 l0 -3500 3500 0 3500 0 0 3500 0 3500 -3500 0 -3500 0 0
-3500z m3893 2775 c410 -57 790 -200 1132 -428 249 -165 530 -424 678 -622
431 -581 632 -1217 589 -1862 -11 -158 -35 -366 -47 -401 -4 -10 -369 -12
-1801 -10 l-1797 3 -228 540 c-126 296 -227 540 -226 541 1 1 647 7 1436 13
789 6 1436 13 1439 15 11 12 -97 248 -156 340 -167 260 -444 507 -691 617
-240 107 -481 160 -731 160 -293 1 -518 -50 -760 -170 -652 -326 -972 -1125
-770 -1924 56 -223 154 -446 271 -619 130 -192 374 -403 564 -488 365 -164
739 -199 1115 -105 254 64 500 193 706 372 34 29 65 53 70 53 5 0 184 -175
399 -390 l389 -389 -64 -58 c-561 -508 -1179 -752 -1905 -753 -674 0 -1233
195 -1753 613 -553 445 -914 1072 -1023 1778 -29 188 -32 588 -6 772 88 621
345 1134 806 1609 213 220 436 380 736 528 319 158 635 247 990 280 136 12
505 4 638 -15z"/>
</g>
</svg>
